<?xml version="1.0" encoding="UTF-8" standalone="no"?>
<!DOCTYPE svg PUBLIC "-//W3C//DTD SVG 1.1//EN" "http://www.w3.org/Graphics/SVG/1.1/DTD/svg11.dtd">
<svg
  viewBox="0 0 24 24"
  version="1.1"
  xmlns="http://www.w3.org/2000/svg"
  xmlns:xlink="http://www.w3.org/1999/xlink"
  xml:space="preserve"
  xmlns:serif="http://www.serif.com/"
  style="fill-rule:evenodd;clip-rule:evenodd;stroke-linejoin:round;stroke-miterlimit:2;"
>
  <rect
    x="0"
    y="0"
    width="24"
    height="24"
    style="fill:none;fill-rule:nonzero;"
  />
  <g
    id="背景"
    transform="matrix(2.63639,0,0,2.63639,-8.50008,-29.6367)"
  >
    <circle
      cx="7.776"
      cy="15.793"
      r="3.793"
      style="fill:rgb(242,242,242);"
    />
  </g>
  <path
    d="M12,2C6.48,2 2,6.48 2,12C2,17.52 6.48,22 12,22C17.52,22 22,17.52 22,12C22,6.48 17.52,2 12,2ZM12,20C7.58,20 4,16.42 4,12C4,7.58 7.58,4 12,4C16.42,4 20,7.58 20,12C20,16.42 16.42,20 12,20Z"
    style="fill:rgb(179,179,179);fill-rule:nonzero;"
  />
</svg>
