<?xml version="1.0" encoding="UTF-8" standalone="no"?>
<!DOCTYPE svg PUBLIC "-//W3C//DTD SVG 1.1//EN" "http://www.w3.org/Graphics/SVG/1.1/DTD/svg11.dtd">
<svg
  viewBox="0 0 24 24"
  version="1.1"
  xmlns="http://www.w3.org/2000/svg"
  xmlns:xlink="http://www.w3.org/1999/xlink"
  xml:space="preserve"
  xmlns:serif="http://www.serif.com/"
  style="fill-rule:evenodd;clip-rule:evenodd;stroke-linejoin:round;stroke-miterlimit:2;"
>
  <rect
    x="0"
    y="0"
    width="24"
    height="24"
    style="fill:none;fill-rule:nonzero;"
  />
  <g
    transform="matrix(0.996996,0,0,1,0.0232061,0.013247)"
  >
    <path
      d="M19.029,5.964L19.029,18.01C19.029,18.552 18.588,18.992 18.044,18.992L5.973,18.992C5.429,18.992 4.988,18.552 4.988,18.01L4.988,5.964C4.988,5.422 5.429,4.982 5.973,4.982L18.044,4.982C18.588,4.982 19.029,5.422 19.029,5.964Z"
      style="fill:rgb(242,242,242);"
    />
  </g>
  <path
    d="M18,19L6,19C5.45,19 5,18.55 5,18L5,6C5,5.45 5.45,5 6,5L18,5C18.55,5 19,5.45 19,6L19,18C19,18.55 18.55,19 18,19ZM19,3L5,3C3.9,3 3,3.9 3,5L3,19C3,20.1 3.9,21 5,21L19,21C20.1,21 21,20.1 21,19L21,5C21,3.9 20.1,3 19,3Z"
    style="fill:rgb(179,179,179);fill-rule:nonzero;"
  />
</svg>
