<?xml version="1.0" encoding="UTF-8" standalone="no"?>
<!DOCTYPE svg PUBLIC "-//W3C//DTD SVG 1.1//EN" "http://www.w3.org/Graphics/SVG/1.1/DTD/svg11.dtd">
<svg
  viewBox="0 0 24 24"
  version="1.1"
  xmlns="http://www.w3.org/2000/svg"
  xmlns:xlink="http://www.w3.org/1999/xlink"
  xml:space="preserve"
  xmlns:serif="http://www.serif.com/"
  style="fill-rule:evenodd;clip-rule:evenodd;stroke-linejoin:round;stroke-miterlimit:2;"
>
  <rect
    x="0"
    y="0"
    width="24"
    height="24"
    style="fill:none;fill-rule:nonzero;"
  />
  <g>
    <path
      d="M5,12L9.997,17.003L19.005,8.001L17.585,6.579L9.997,14.174L6.406,10.589L5,12Z"
      style="fill:rgb(242,242,242);"
    />
    <path
      d="M19,3L5,3C3.89,3 3,3.9 3,5L3,19C3,20.1 3.89,21 5,21L19,21C20.11,21 21,20.1 21,19L21,5C21,3.9 20.11,3 19,3ZM10,17L5,12L6.41,10.59L10,14.17L17.59,6.58L19,8L10,17Z"
      style="fill:rgb(179,179,179);fill-rule:nonzero;"
    />
  </g>
</svg>
